# xmcd
#
# Track frame offsets:
#	150
#	1862
#	15637
#	23959
#	31435
#	37343
#	54097
#	65848
#	75316
#	97999
#	131740
#	160281
#	178313
#	206386
#	222124
#	250040
#	264630
#	265783
#	276946
#	289584
#	301787
#	317427
#
# Disc length: 4285 seconds
#
# Revision: 1
# Processed by: cddbd v1.5.2PL0 Copyright (c) Steve Scherf et al.
# Submitted via: audiograbber 1.83.01
#
DISCID=2c10bb16
DTITLE=Rossicléa - Fui ao Ceará e Vi a Rossicléa
DYEAR=2007
DGENRE=Piada
TTITLE0=Rossicléa 01
TTITLE1=Rossicléa 02
TTITLE2=Rossicléa 03
TTITLE3=Rossicléa 04
TTITLE4=Rossicléa 05
TTITLE5=Rossicléa 06
TTITLE6=Rossicléa 07
TTITLE7=Rossicléa 08
TTITLE8=Rossicléa 09
TTITLE9=Rossicléa 10
TTITLE10=Rossicléa 11
TTITLE11=Rossicléa 12
TTITLE12=Rossicléa 13
TTITLE13=Rossicléa 14
TTITLE14=Rossicléa 15
TTITLE15=Rossicléa 16
TTITLE16=Rossicléa 17
TTITLE17=Rossicléa 18
TTITLE18=Rossicléa 19
TTITLE19=Rossicléa 20
TTITLE20=Rossicléa 21
TTITLE21=Rossicléa 22
EXTD=
EXTT0=
EXTT1=
EXTT2=
EXTT3=
EXTT4=
EXTT5=
EXTT6=
EXTT7=
EXTT8=
EXTT9=
EXTT10=
EXTT11=
EXTT12=
EXTT13=
EXTT14=
EXTT15=
EXTT16=
EXTT17=
EXTT18=
EXTT19=
EXTT20=
EXTT21=
PLAYORDER=
